. 
  
http://www.torrenting.com/        :     Greatest Movie Tracker on The Net!!!
 
http://www.Torrenting.com          :     Once & For all ;)


               www . Torrenting . Com 

(((((((((((((= Enjoy No RAR releases =))))))))))))))))))))


...................................NFO:....................................

.[img]http://img11.imageshack.us/img11/5042/be3aad45.jpg[/img]


[color=blue][size=5][b]Jane.Eyre.2011.BDRip.XVID.AC3.HQ.Hive-CM8[/b][/size][/color]


[b]Thx Hive

CM8 Doing It Right The First Time :D


Source: Bluray

Video: 720x384 @bitrate 1600 2pass
Audio: English DTS to AC3 5.1 @448
Sample: yes included
Subs: yes english in srt /subs[/b]


[url]http://www.imdb.com/title/tt1229822/[/url]


General
Complete name                    : Jane.Eyre.2011.BDRip.XVID.AC3.HQ.Hive-CM8.avi
Format                           : AVI
Format/Info                      : Audio Video Interleave
File size                        : 1.71 GiB
Duration                         : 2h 0mn
Overall bit rate                 : 2 037 Kbps
Writing application              : Nandub v1.0rc2
Writing library                  : Nandub build 1853/release

Video
ID                               : 0
Format                           : MPEG-4 Visual
Format profile                   : Advanced Simple@L5
Format settings, BVOP            : 1
Format settings, QPel            : Yes
Format settings, GMC             : No warppoints
Format settings, Matrix          : Default (H.263)
Muxing mode                      : Packed bitstream
Codec ID                         : XVID
Codec ID/Hint                    : XviD
Duration                         : 2h 0mn
Bit rate                         : 1 580 Kbps
Width                            : 720 pixels
Height                           : 384 pixels
Display aspect ratio             : 1.850
Frame rate                       : 23.976 fps
Color space                      : YUV
Chroma subsampling               : 4:2:0
Bit depth                        : 8 bits
Scan type                        : Progressive
Compression mode                 : Lossy
Bits/(Pixel*Frame)               : 0.238
Stream size                      : 1.33 GiB (78%)
Writing library                  : XviD 1.2.1 (UTC 2008-12-04)

Audio
ID                               : 1
Format                           : AC-3
Format/Info                      : Audio Coding 3
Mode extension                   : CM (complete main)
Codec ID                         : 2000
Duration                         : 2h 0mn
Bit rate mode                    : Constant
Bit rate                         : 448 Kbps
Channel(s)                       : 6 channels
Channel positions                : Front: L C R, Side: L R, LFE
Sampling rate                    : 48.0 KHz
Bit depth                        : 16 bits
Compression mode                 : Lossy
Stream size                      : 385 MiB (22%)
Alignment                        : Split accross interleaves
Interleave, duration             : 42 ms (1.00 video frame)
Interleave, preload duration     : 500 ms


Plot:
A mousy governess who softens the heart of her employer
soon discovers that he's hiding a terrible secret.


Cast:
Mia Wasikowska     ...   Jane Eyre
Jamie Bell         ...   St John Rivers
Holliday Grainger  ...   Diana Rivers
Tamzin Merchant    ...   Mary Rivers
Michael Fassbender ...   Rochester
Judi Dench         ...   Mrs. Fairfax


[img]http://img705.imageshack.us/img705/8508/47026273.png[/img]
[img]http://img40.imageshack.us/img40/2924/jajatw.png[/img]
[img]http://img221.imageshack.us/img221/3435/jajajasmf.png[/img]
[img]http://img4.imageshack.us/img4/4582/jajajjaa.png[/img]
[img]http://img35.imageshack.us/img35/6538/jajajajajjajaa.png[/img]
[img]http://img828.imageshack.us/img828/271/jajajajjajaa.png[/img]
[img]http://img96.imageshack.us/img96/3500/jajajjajaa.png[/img]



Greetz

ViSiON,SiC,SANTi,3LT0N,YanKeeS,MAGNET,THC,T0XiC,LKRG,FANTASIA-PLAY,FANTASIA-M,BHRG,
D2U,IMAGiNE,WBZ,FLAWL3SS,NOVA,Vik,Rapeseed,SAFC,goldadvance,MEMORY100,scumbag,Hero5,
Unevano,KaN1vE,Pinnz,Wayne,cedrict wink,Mr Hive and all P2P groups
Great Work Guys :D

FYS

CM8@hushmail.com